<?xml version="1.0" standalone="no"?>
<!DOCTYPE svg PUBLIC "-//W3C//DTD SVG 20010904//EN"
 "http://www.w3.org/TR/2001/REC-SVG-20010904/DTD/svg10.dtd">
<svg version="1.0" xmlns="http://www.w3.org/2000/svg"
 width="400.000000pt" height="400.000000pt" viewBox="0 0 400.000000 400.000000"
 preserveAspectRatio="xMidYMid meet">
<metadata>
Created by potrace 1.14, written by Peter Selinger 2001-2017
</metadata>
<g transform="translate(0.000000,400.000000) scale(0.100000,-0.100000)"
fill="#000000" stroke="none">
<path d="M1859 3996 c-2 -2 -31 -6 -64 -10 -33 -3 -69 -8 -80 -10 -11 -2 -40
-7 -65 -11 -60 -9 -237 -59 -325 -92 -79 -29 -275 -124 -316 -154 -15 -10 -32
-19 -38 -19 -6 0 -11 -4 -11 -10 0 -5 -5 -10 -11 -10 -43 0 -365 -288 -465
-415 -21 -27 -42 -52 -45 -55 -13 -12 -119 -178 -119 -188 0 -6 -4 -12 -9 -14
-11 -4 -83 -148 -122 -245 -28 -69 -83 -244 -95 -298 -16 -80 -24 -127 -29
-170 -3 -27 -8 -66 -11 -85 -7 -49 -7 -315 0 -375 23 -197 69 -384 131 -538
178 -441 505 -803 925 -1024 151 -80 359 -153 505 -179 17 -3 46 -9 65 -14
123 -31 470 -34 660 -6 244 37 548 157 770 304 149 99 317 247 413 366 18 21
43 53 57 70 103 125 216 326 285 507 30 77 79 242 89 297 19 100 20 108 32
222 28 271 -19 635 -110 859 -14 34 -23 61 -21 61 2 0 -25 57 -59 128 -167
335 -381 579 -690 786 -188 125 -469 245 -660 280 -75 14 -145 26 -181 32 -44
6 -400 15 -406 10z"/>
</g>
</svg>
